@startuml
set namespaceSeparator ::

abstract class "file:::::::D:::fredgrttsstuff::GithubProjects::where_is_state::state_ex::bin::state_ex.dart::State" {
  +void handler()
  +String toString()
}

class "file:::::::D:::fredgrttsstuff::GithubProjects::where_is_state::state_ex::bin::state_ex.dart::StatusOn" {
  +void handler()
  +String toString()
}

"file:::::::D:::fredgrttsstuff::GithubProjects::where_is_state::state_ex::bin::state_ex.dart::State" <|-- "file:::::::D:::fredgrttsstuff::GithubProjects::where_is_state::state_ex::bin::state_ex.dart::StatusOn"

class "file:::::::D:::fredgrttsstuff::GithubProjects::where_is_state::state_ex::bin::state_ex.dart::StatusOff" {
  +void handler()
  +String toString()
}

"file:::::::D:::fredgrttsstuff::GithubProjects::where_is_state::state_ex::bin::state_ex.dart::State" <|-- "file:::::::D:::fredgrttsstuff::GithubProjects::where_is_state::state_ex::bin::state_ex.dart::StatusOff"

class "file:::::::D:::fredgrttsstuff::GithubProjects::where_is_state::state_ex::bin::state_ex.dart::Stateful" {
  +State state
  +void touch()
}

"file:::::::D:::fredgrttsstuff::GithubProjects::where_is_state::state_ex::bin::state_ex.dart::Stateful" o-- "file:::::::D:::fredgrttsstuff::GithubProjects::where_is_state::state_ex::bin::state_ex.dart::State"


@enduml